<svg xmlns="http://www.w3.org/2000/svg" viewBox="0 0 615.31 149.43"><defs><style>.cls-1{fill:#039;}.cls-2{fill:#fff;}</style></defs><g id="Layer_2" data-name="Layer 2"><g id="Layer_1-2" data-name="Layer 1"><path class="cls-1" d="M183.79,141.48c1,0,1.3-.25,1.3-1.27v-4a1.39,1.39,0,0,0-.25-1c-.13-.18-.41-.28-1.05-.28H168.27c-.07,0-.1,0-.1-.1v-2.81a1,1,0,0,1,1-1h15.29c3.19,0,4.9,1.73,4.9,4.92v4.48c0,3.19-1.71,4.92-4.9,4.92h-12v2.52a1,1,0,0,1-.28.72.9.9,0,0,1-.71.28h-2.25a1,1,0,0,1-1-1v-6.29c0-.08,0-.13.1-.13Z"/><path class="cls-1" d="M208.68,131.06c3.18,0,4.92,1.73,4.92,4.92v3.54c0,3.31-1.59,4.49-4.77,4.82a.1.1,0,0,0-.08.18c1.07,1,3.49,3.31,4.39,4.2a.11.11,0,0,1-.08.18h-5.78c-.06,0-.08,0-.08,0-2.93-2.85-7-6.75-8.46-8.18a.1.1,0,0,1,.07-.18H208c1,0,1.3-.25,1.3-1.27v-3c0-.61-.13-.86-.26-1s-.4-.28-1-.28H192.52c-.08,0-.1,0-.1-.1v-2.81a1,1,0,0,1,1-1Z"/><path class="cls-1" d="M219.9,131.06a.9.9,0,0,1,.71.28,1,1,0,0,1,.28.71V147.9a1,1,0,0,1-.28.72.9.9,0,0,1-.71.28h-2.24a1,1,0,0,1-1-1V132.05a1,1,0,0,1,1-1Z"/><path class="cls-1" d="M241.64,131c2.65,0,4.38,1.13,4.79,3.78.06.07,0,.12-.1.12H229.61a1.56,1.56,0,0,0-1.14.31,1.18,1.18,0,0,0-.28.94v7.7a1.18,1.18,0,0,0,.28.94,1.55,1.55,0,0,0,1.14.33h16.72c.08,0,.13,0,.13.1-.41,2.65-2.17,3.8-4.82,3.8H229c-3.19,0-5-1.63-5-4.92V135.9c0-3.29,1.73-4.92,5-4.92Z"/><path class="cls-1" d="M249.84,131.39l.12-.1a1,1,0,0,1,.74-.23h18.35a.85.85,0,0,1,.46.1.83.83,0,0,1,.48.61c0,.18.05.26.05.28V134a1,1,0,0,1-.28.74,1,1,0,0,1-.71.26H250.57a.76.76,0,0,1-.58-.18c-.08,0-.05-.05-.13-.08a1,1,0,0,1-.28-.71v-1.71c0-.1,0-.2,0-.3A.92.92,0,0,1,249.84,131.39Zm-.26,7.82,0-.3a.9.9,0,0,1,.23-.56l.13-.1a1,1,0,0,1,.76-.21h18.07a.92.92,0,0,1,.94.72s0,.12,0,.28v1.88a.93.93,0,0,1-1,1H250.57a.86.86,0,0,1-.61-.18s-.07,0-.1-.1a.84.84,0,0,1-.28-.54Zm0,7c0-.18,0-.28,0-.31a1,1,0,0,1,.2-.61.92.92,0,0,1,.74-.33h18.6a.92.92,0,0,1,1,.71s0,.13,0,.28v1.91a1.1,1.1,0,0,1-.26.72l-.08.07a1,1,0,0,1-.66.21H250.57a1,1,0,0,1-.61-.18s-.07,0-.1-.1a1,1,0,0,1-.28-.69Z"/><path class="cls-1" d="M303.37,131c2.65,0,4.38,1.13,4.79,3.78,0,.07,0,.12-.1.12H291.34a1.53,1.53,0,0,0-1.14.31,1.18,1.18,0,0,0-.28.94v7.7a1.18,1.18,0,0,0,.28.94,1.51,1.51,0,0,0,1.14.33h16.72c.08,0,.13,0,.13.1-.41,2.65-2.17,3.8-4.82,3.8H290.7c-3.18,0-5-1.63-5-4.92V135.9c0-3.29,1.74-4.92,5-4.92Z"/><path class="cls-1" d="M311.31,132.05a1,1,0,0,1,1-1h2.25a.93.93,0,0,1,.71.28,1,1,0,0,1,.28.71v6h13.17v-6a1,1,0,0,1,1-1H332a1.15,1.15,0,0,1,.74.28,1.21,1.21,0,0,1,.28.71V147.9a1,1,0,0,1-1,1h-2.24a1,1,0,0,1-1-1v-6H315.54v6a1,1,0,0,1-.28.72.93.93,0,0,1-.71.28H312.3a1,1,0,0,1-1-1Z"/><path class="cls-1" d="M336.29,131.39l.13-.1a1,1,0,0,1,.74-.23h18.35a.93.93,0,0,1,.94.71c0,.18.05.26.05.28V134a1,1,0,0,1-.28.74,1,1,0,0,1-.71.26H337a.74.74,0,0,1-.58-.18c-.08,0-.05-.05-.13-.08A1,1,0,0,1,336,134v-1.71c0-.1,0-.2,0-.3A1,1,0,0,1,336.29,131.39Zm-.25,7.82,0-.3a.9.9,0,0,1,.23-.56l.13-.1a1,1,0,0,1,.76-.21h18.07a.77.77,0,0,1,.59.18.8.8,0,0,1,.35.54s0,.12,0,.28v1.88a.93.93,0,0,1-1,1H337a.85.85,0,0,1-.61-.18s-.08,0-.1-.1a.79.79,0,0,1-.28-.54Zm0,7a1,1,0,0,1,0-.31,1,1,0,0,1,.21-.61A.92.92,0,0,1,337,145h18.6a.92.92,0,0,1,1,.71.84.84,0,0,1,0,.28v1.91a1.09,1.09,0,0,1-.25.72l-.08.07a1,1,0,0,1-.66.21H337a1,1,0,0,1-.61-.18s-.08,0-.1-.1a1,1,0,0,1-.28-.69Z"/><path class="cls-1" d="M377.36,131c2.65,0,4.38,1.13,4.79,3.78.05.07,0,.12-.1.12H365.33a1.53,1.53,0,0,0-1.14.31,1.18,1.18,0,0,0-.28.94v7.7a1.18,1.18,0,0,0,.28.94,1.51,1.51,0,0,0,1.14.33h16.72c.08,0,.13,0,.13.1-.41,2.65-2.17,3.8-4.82,3.8H364.69c-3.18,0-5-1.63-5-4.92V135.9c0-3.29,1.73-4.92,5-4.92Z"/><path class="cls-1" d="M388.54,131a.89.89,0,0,1,.71.28,1,1,0,0,1,.28.71v15.85a1,1,0,0,1-.28.71.93.93,0,0,1-.71.28h-2.25a1,1,0,0,1-1-1V132a.94.94,0,0,1,1-1Zm6.37,11.1c-1.46-1.19-3-2.44-4.62-3.74-.07-.08-.05-.13,0-.18l11-6.73.05,0a1.87,1.87,0,0,1,.91-.41,1.49,1.49,0,0,1,.36,0h3.31a.86.86,0,0,1,.46,1.6c-3.79,2.37-8.86,5.56-9.55,6-.08.05-.11.1,0,.18l1.94,1.61c1.68,1.4,5.53,4.51,8.38,7a.86.86,0,0,1-.53,1.53h-3.09a1,1,0,0,1-.43-.07l-.56-.46-.23-.21c-.18-.12-.38-.3-.66-.53C400.18,146.5,397.33,144.16,394.91,142.14Z"/><path class="cls-1" d="M409.5,131.39l.12-.1a1,1,0,0,1,.74-.23h18.35a.85.85,0,0,1,.46.1.83.83,0,0,1,.48.61c0,.18.05.26.05.28V134a1,1,0,0,1-.28.74,1,1,0,0,1-.71.26H410.24a.77.77,0,0,1-.59-.18c-.08,0,0-.05-.13-.08a1,1,0,0,1-.28-.71v-1.71c0-.1,0-.2,0-.3A.92.92,0,0,1,409.5,131.39Zm-.26,7.82.05-.3a.9.9,0,0,1,.23-.56l.13-.1a1,1,0,0,1,.76-.21h18.07a.92.92,0,0,1,.94.72s0,.12,0,.28v1.88a.93.93,0,0,1-1,1H410.24a.87.87,0,0,1-.62-.18s-.07,0-.1-.1a.84.84,0,0,1-.28-.54Zm0,7c0-.18,0-.28,0-.31a1,1,0,0,1,.2-.61.92.92,0,0,1,.74-.33h18.6a.92.92,0,0,1,1,.71s0,.13,0,.28v1.91a1.1,1.1,0,0,1-.26.72l-.08.07a1,1,0,0,1-.66.21H410.24a1,1,0,0,1-.62-.18s-.07,0-.1-.1a1,1,0,0,1-.28-.69Z"/><path class="cls-1" d="M449.13,131.06c3.19,0,4.92,1.73,4.92,4.92v3.54c0,3.31-1.58,4.49-4.76,4.82-.11,0-.16.1-.08.18,1.07,1,3.49,3.31,4.38,4.2a.11.11,0,0,1-.07.18h-5.79c-.05,0-.08,0-.08,0-2.93-2.85-6.95-6.75-8.45-8.18a.1.1,0,0,1,.07-.18h9.23c1,0,1.3-.25,1.3-1.27v-3c0-.61-.13-.86-.26-1s-.41-.28-1-.28H433c-.08,0-.11,0-.11-.1v-2.81a1,1,0,0,1,1-1Z"/><path class="cls-1" d="M487.94,130.88a3.73,3.73,0,0,1,3.77,3.77v0c0,.08,0,.1-.1.1H475.35a1.83,1.83,0,0,0-1.28.33,1.42,1.42,0,0,0-.3,1,1.52,1.52,0,0,0,.33,1.12,2,2,0,0,0,1.35.46l10.73.61c3.39.18,5.53,1.81,5.53,5.35s-2,5.2-5.58,5.2H473.41a3.85,3.85,0,0,1-3.82-3.72c0-.08,0-.1.1-.13h.94c1.71,0,5.56,0,8.95,0,2,0,4.1,0,6.34,0,1.1,0,1.59-.26,1.59-1.38a1.73,1.73,0,0,0-.31-1.14,1.84,1.84,0,0,0-1.35-.44l-10.73-.61c-3.44-.2-5.53-1.81-5.53-5.38s2.09-5.17,5.58-5.17Z"/><path class="cls-1" d="M494.47,131.06h2.63a1.47,1.47,0,0,1,1.12.56l6.6,7.08,3.29-3.54,2.27-2.44,1-1.12a1.46,1.46,0,0,1,1.1-.54h2.63a.91.91,0,0,1,.58.18.94.94,0,0,1,.31.36.59.59,0,0,1,0,.45.79.79,0,0,1-.25.49l-8.9,9.58v5.78a1,1,0,0,1-.28.72.9.9,0,0,1-.71.28H503.7a1,1,0,0,1-1-1v-5.78l-4.43-4.79c-2.24-2.37-4.38-4.77-4.41-4.77a.88.88,0,0,1-.28-.51.56.56,0,0,1,0-.45A.9.9,0,0,1,494.47,131.06Z"/><path class="cls-1" d="M536.25,130.88a3.74,3.74,0,0,1,3.78,3.77v0c0,.08,0,.1-.1.1H523.67a1.81,1.81,0,0,0-1.28.33,1.37,1.37,0,0,0-.3,1,1.52,1.52,0,0,0,.33,1.12c.2.23.56.38,1.35.46l10.73.61c3.39.18,5.53,1.81,5.53,5.35s-2,5.2-5.58,5.2H521.73a3.85,3.85,0,0,1-3.82-3.72c0-.08,0-.1.1-.13H519c1.71,0,5.56,0,8.95,0,2,0,4.1,0,6.34,0,1.1,0,1.58-.26,1.58-1.38a1.73,1.73,0,0,0-.3-1.14,1.86,1.86,0,0,0-1.35-.44l-10.73-.61c-3.44-.2-5.53-1.81-5.53-5.38s2.09-5.17,5.58-5.17Z"/><path class="cls-1" d="M562.92,131.06a1.15,1.15,0,0,1,.74.28,1.21,1.21,0,0,1,.28.71V134a1,1,0,0,1-1,1H555V147.9a1,1,0,0,1-.28.72.9.9,0,0,1-.71.28h-2.19a.94.94,0,0,1-.72-.28,1,1,0,0,1-.28-.72V135h-8a1.05,1.05,0,0,1-.72-.26,1,1,0,0,1-.28-.74v-1.91a1,1,0,0,1,1-1Z"/><path class="cls-1" d="M566,131.39l.13-.1a1,1,0,0,1,.74-.23h18.35a.93.93,0,0,1,.94.71c0,.18.05.26.05.28V134a1,1,0,0,1-.28.74,1,1,0,0,1-.71.26H566.73a.74.74,0,0,1-.58-.18c-.08,0,0-.05-.13-.08a1,1,0,0,1-.28-.71v-1.71c0-.1,0-.2,0-.3A1,1,0,0,1,566,131.39Zm-.25,7.82,0-.3a.9.9,0,0,1,.23-.56l.13-.1a1,1,0,0,1,.76-.21H585a.77.77,0,0,1,.59.18.8.8,0,0,1,.35.54s0,.12,0,.28v1.88a.93.93,0,0,1-1,1H566.73a.85.85,0,0,1-.61-.18s-.08,0-.1-.1a.79.79,0,0,1-.28-.54Zm0,7a1,1,0,0,1,0-.31,1,1,0,0,1,.21-.61.92.92,0,0,1,.74-.33h18.6a.92.92,0,0,1,1,.71.84.84,0,0,1,0,.28v1.91a1.09,1.09,0,0,1-.25.72l-.08.07a1,1,0,0,1-.66.21H566.73a1,1,0,0,1-.61-.18s-.08,0-.1-.1a1,1,0,0,1-.28-.69Z"/><path class="cls-1" d="M589.37,132.05a1,1,0,0,1,1-1h3.44a1.07,1.07,0,0,1,.53.15,1,1,0,0,1,.49.51l7.51,12.18,7.52-12.18a.93.93,0,0,1,.48-.51,1.13,1.13,0,0,1,.57-.15h3.41a.9.9,0,0,1,.71.28,1,1,0,0,1,.28.71V147.9a1,1,0,0,1-.28.72.9.9,0,0,1-.71.28h-2.24a.9.9,0,0,1-.71-.28,1,1,0,0,1-.28-.72V137.43l-6.66,10.81a1.2,1.2,0,0,1-1.09.66h-2a1.22,1.22,0,0,1-1.07-.66l-6.65-10.81V147.9a1,1,0,0,1-.28.72.9.9,0,0,1-.71.28h-2.24a1,1,0,0,1-1-1Z"/><path class="cls-1" d="M265.25,65.83c6.33,0,8.07-1.59,8.07-7.92V33.23c0-3.8-.79-5.38-1.58-6.17-.79-1.11-2.53-1.74-6.49-1.74H168.89c-.48,0-.64-.16-.64-.64V7.28a5.9,5.9,0,0,1,6.17-6.17h94.94c19.78,0,30.38,10.76,30.38,30.54V59.5c0,19.77-10.6,30.53-30.38,30.53H194.52V105.7a6.14,6.14,0,0,1-1.74,4.43,5.73,5.73,0,0,1-4.43,1.74H174.42a5.9,5.9,0,0,1-6.17-6.17V66.62c0-.48.16-.79.64-.79Z"/><path class="cls-1" d="M428.55.63c16.46,0,27.22,7,29.75,23.42.32.48.16.79-.63.79H353.87c-4,0-6,.79-7.12,1.9-1.11.79-1.74,2.85-1.74,5.86V80.38c0,3,.63,5.07,1.74,5.86,1.11,1.11,3.16,2.06,7.12,2.06h103.8c.48,0,.79.15.79.63-2.53,16.45-13.45,23.57-29.91,23.57H349.91c-19.78,0-31.17-10.12-31.17-30.53V31.17C318.74,10.76,329.5.63,349.91.63Z"/><path class="cls-1" d="M591.71,0a23.17,23.17,0,0,1,23.41,23.42v.16c0,.47-.16.63-.63.63h-101c-4.43,0-6.81.95-7.91,2.06s-1.9,2.84-1.9,6.49c0,3.32.63,5.53,2,7s3.48,2.37,8.39,2.85l66.62,3.79c21,1.11,34.33,11.24,34.33,33.23,0,22.79-12.65,32.28-34.65,32.28h-79a23.87,23.87,0,0,1-23.73-23.1c0-.47.15-.63.63-.79h5.85c10.61,0,34.5-.16,55.54-.16,12.66,0,25.48,0,39.4-.16,6.81,0,9.81-1.58,9.81-8.54q0-5-1.89-7.12c-1.27-1.27-3.49-2.54-8.39-2.69l-66.62-3.8c-21.36-1.27-34.33-11.24-34.33-33.39,0-22.63,13-32.12,34.65-32.12Z"/><rect class="cls-1" y="0.43" width="149" height="149" rx="28.7"/><path class="cls-2" d="M125.22,25.32a4.31,4.31,0,0,0-1.17-1.16,2.61,2.61,0,0,0-1.49-.45h0a2.69,2.69,0,0,0-1.59.53,16.23,16.23,0,0,0-1.64,1.31c-1.67,1.61-3.28,3.27-5.07,5.06-.84-.91-1.68-1.7-2.37-2.59-1.42-1.81-3.21-2.23-5.44-2.06-4.82.38-9.66.54-14.5.79-5.67.29-11.34.59-17,.86a4.82,4.82,0,0,0-3.41,1.45Q47.61,53,23.7,76.86c-1.81,1.81-1.82,3.54,0,5.33Q45.45,104,67.25,125.77c1.67,1.67,3.46,1.7,5.12,0q24.07-24.06,48.15-48.14a3.8,3.8,0,0,0,1.19-2.58c.12-2.66.26-5.31.4-8q.66-12.8,1.33-25.59a3.79,3.79,0,0,0-1.24-3.15c-1.12-1.06-2.2-2.15-3.4-3.33,1.55-1.52,3-2.93,4.45-4.41.65-.68,1.23-1.43,1.82-2.17a2.77,2.77,0,0,0,.59-1.68h0A2.68,2.68,0,0,0,125.22,25.32Zm-9.89,47.82a2.23,2.23,0,0,1-.68,1.24Q103.48,85.62,92.26,96.8L70.72,118.34c-.26.26-.48.56-.72.84L30.28,79.45c.17-.19.39-.43.63-.66q22-22,43.92-44a2.78,2.78,0,0,1,2-.85q14.51-.7,29-1.49a2.34,2.34,0,0,1,2.1.8c.54.6,1.18,1.09,1.85,1.7-2.24,2.23-4.33,4.35-6.48,6.42-.17.17-.73.09-1,0a10.85,10.85,0,0,0-14,5,10.36,10.36,0,0,0,1.25,11.9,10.25,10.25,0,0,0,11.3,3.63c4.46-1.21,7.1-4.29,7.93-8.86A10.9,10.9,0,0,0,108,47a1.23,1.23,0,0,1,.15-1.09c2-2.08,4.06-4.11,6.27-6.33.8.86,1.59,1.68,2.32,2.54a1.32,1.32,0,0,1,.2.84Q116.14,58,115.33,73.14ZM102.44,51.42A4.49,4.49,0,1,1,98,46.93,4.51,4.51,0,0,1,102.44,51.42Z"/><path class="cls-2" d="M72.08,61.22a4.28,4.28,0,0,0-3-1.27h0a4.22,4.22,0,0,0-2.92,7.22C70.9,72,76.57,77.68,82.24,83.27a5.16,5.16,0,0,0,1.73,1,1.86,1.86,0,0,1,.3.12l.23.12h.27c2.19-.07,3.59-.91,4.28-2.55h0a4.07,4.07,0,0,0-.92-4.71Q80.12,69.23,72.08,61.22Z"/><path class="cls-2" d="M76.87,91.39a5.55,5.55,0,0,0-1-1.73c-5.52-5.6-11.21-11.27-16.11-16.14a4.14,4.14,0,0,0-5-.68,4.07,4.07,0,0,0-2,4.52A4.93,4.93,0,0,0,54,79.64Q60.07,85.84,66.25,92l3.52,3.52a3.87,3.87,0,0,0,.47.43,4.21,4.21,0,0,0,2.6.93,4.26,4.26,0,0,0,1.84-.43,4.6,4.6,0,0,0,2.59-3.76l0-.33L77.17,92C77.06,91.83,77,91.61,76.87,91.39Z"/></g></g></svg>