<svg xmlns="http://www.w3.org/2000/svg" viewBox="0 0 437.42 149"><defs><style>.cls-1{fill:#039;}.cls-2{fill:#fff;}</style></defs><g id="Layer_2" data-name="Layer 2"><g id="Layer_1-2" data-name="Layer 1"><path class="cls-1" d="M266.86.58c18,0,28.23,9.22,28.23,27.8V74.62c0,8.65-2,15.42-7.2,20.46-5,4.61-6.91,5.33-14.84,6.77,1.88,5,3.6,9.22,6.49,16.56H253.75c-1.87-5-4-10.37-6.19-16H196c-18,0-28.38-9.21-28.38-27.8V28.38C167.6,9.8,177.4.58,196,.58Zm-75.34,72.6c0,2.74.57,4.61,1.58,5.33,1,1,2.88,1.87,6.48,1.87h39.33l-3.74-9.5H261c1.3,3.45,2.45,6.62,3.6,9.36a9.09,9.09,0,0,0,5.19-1.58c.72-1,1.44-2.17,1.44-5.48V29.68c0-5.77-2.3-7.06-7.92-7.06H199.58c-3.6,0-5.47.72-6.48,1.73-1,.72-1.58,2.59-1.58,5.33Z"/><path class="cls-1" d="M416.1,0a21.09,21.09,0,0,1,21.32,21.32v.14c0,.44-.15.58-.58.58H344.93c-4,0-6.19.86-7.2,1.87S336,26.51,336,29.82c0,3,.58,5,1.87,6.34s3.17,2.16,7.64,2.59l60.65,3.46c19.16,1,31.26,10.23,31.26,30.25,0,20.75-11.53,29.39-31.55,29.39H334a21.76,21.76,0,0,1-21.61-21c0-.44.15-.72.58-.72h5.33c9.65,0,31.4-.15,50.56-.15,11.53,0,23.2,0,35.88-.14,6.19,0,8.93-1.44,8.93-7.78q0-4.55-1.73-6.48c-1.15-1.16-3.17-2.31-7.64-2.45l-60.65-3.46c-19.44-1.15-31.26-10.23-31.26-30.4C312.37,8.64,324.19,0,343.92,0Z"/><path class="cls-1" d="M184.21,129.09c3,0,4.77,1.56,4.77,4.7v7.81a4.54,4.54,0,0,1-1.22,3.46,3.77,3.77,0,0,1-2.51,1.14c.32.85.61,1.56,1.1,2.8H182c-.31-.85-.68-1.75-1-2.7h-8.72c-3,0-4.79-1.56-4.79-4.7v-7.81c0-3.14,1.65-4.7,4.79-4.7Zm-12.73,12.27c0,.46.09.78.26.9a1.52,1.52,0,0,0,1.1.31h6.65l-.64-1.6h4.36c.22.58.41,1.12.61,1.58a1.65,1.65,0,0,0,.88-.27,1.35,1.35,0,0,0,.24-.92V134c0-1-.39-1.19-1.34-1.19H172.84a1.54,1.54,0,0,0-1.1.29,1.15,1.15,0,0,0-.26.9Z"/><path class="cls-1" d="M195,129.16a.87.87,0,0,1,.68.27,1,1,0,0,1,.27.68v11.17c0,.95.29,1.2,1.24,1.2h11c.95,0,1.21-.25,1.21-1.2V130.11a.91.91,0,0,1,.95-1h2.14a1,1,0,0,1,.71.27,1,1,0,0,1,.24.68V141.5c0,3.14-1.55,4.7-4.67,4.7h-12.2c-3.14,0-4.67-1.66-4.67-4.7V130.11a.91.91,0,0,1,.95-1Z"/><path class="cls-1" d="M216.61,129.48l.12-.1a1,1,0,0,1,.71-.22H235a.87.87,0,0,1,.44.1.8.8,0,0,1,.46.58c0,.17,0,.25,0,.27v1.83a1,1,0,0,1-.26.7,1,1,0,0,1-.69.25H217.32a.7.7,0,0,1-.56-.18c-.08,0,0,0-.13-.07a1,1,0,0,1-.26-.68v-1.63c0-.1,0-.2,0-.29A1,1,0,0,1,216.61,129.48Zm-.24,7.47,0-.29a.88.88,0,0,1,.21-.54l.13-.09a.93.93,0,0,1,.73-.2h17.25a.72.72,0,0,1,.56.17.77.77,0,0,1,.35.51.76.76,0,0,1,0,.27v1.8a.88.88,0,0,1-.95.95h-17.4a.83.83,0,0,1-.59-.17s-.07,0-.1-.1a.74.74,0,0,1-.26-.51Zm0,6.72a.8.8,0,0,1,0-.29,1,1,0,0,1,.2-.59.84.84,0,0,1,.7-.31h17.77a.89.89,0,0,1,.93.68.73.73,0,0,1,0,.27v1.82a1,1,0,0,1-.24.68l-.08.08a.9.9,0,0,1-.63.19H217.32a1,1,0,0,1-.59-.17s-.07,0-.1-.1a1,1,0,0,1-.26-.65Z"/><path class="cls-1" d="M242,129.16a.9.9,0,0,1,.69.27,1,1,0,0,1,.26.68v11.17c0,.95.3,1.2,1.24,1.2h11c1,0,1.21-.25,1.21-1.2V130.11a.91.91,0,0,1,.95-1h2.15a1,1,0,0,1,.7.27,1,1,0,0,1,.25.68V141.5c0,3.14-1.56,4.7-4.68,4.7H243.61c-3.14,0-4.68-1.66-4.68-4.7V130.11a.91.91,0,0,1,.95-1Z"/><path class="cls-1" d="M263.64,129.48l.12-.1a1,1,0,0,1,.71-.22H282a.87.87,0,0,1,.44.1.83.83,0,0,1,.47.58c0,.17,0,.25,0,.27v1.83a1,1,0,0,1-.26.7,1,1,0,0,1-.69.25H264.35a.7.7,0,0,1-.56-.18c-.08,0-.05,0-.13-.07a1,1,0,0,1-.26-.68v-1.63c0-.1,0-.2,0-.29A1,1,0,0,1,263.64,129.48ZM263.4,137l.05-.29a.88.88,0,0,1,.21-.54l.13-.09a.94.94,0,0,1,.73-.2h17.26a.71.71,0,0,1,.55.17.74.74,0,0,1,.35.51.76.76,0,0,1,0,.27v1.8a.88.88,0,0,1-.95.95h-17.4a.83.83,0,0,1-.59-.17s-.07,0-.1-.1a.74.74,0,0,1-.26-.51Zm0,6.72a.8.8,0,0,1,0-.29,1,1,0,0,1,.2-.59.85.85,0,0,1,.7-.31h17.77a.88.88,0,0,1,.93.68.73.73,0,0,1,0,.27v1.82a1,1,0,0,1-.24.68l-.08.08a.9.9,0,0,1-.63.19H264.35a1,1,0,0,1-.59-.17s-.07,0-.1-.1a1,1,0,0,1-.26-.65Z"/><path class="cls-1" d="M315.39,129a3.57,3.57,0,0,1,3.61,3.6v0c0,.07,0,.09-.1.09H303.37a1.74,1.74,0,0,0-1.22.32,1.31,1.31,0,0,0-.29,1,1.49,1.49,0,0,0,.31,1.07,1.89,1.89,0,0,0,1.3.44l10.24.58c3.24.17,5.29,1.73,5.29,5.11s-1.95,5-5.33,5H301.52a3.67,3.67,0,0,1-3.65-3.55c0-.08,0-.1.09-.13h.9l8.55,0c1.95,0,3.92,0,6.06,0,1,0,1.51-.25,1.51-1.32a1.64,1.64,0,0,0-.29-1.09,1.79,1.79,0,0,0-1.29-.42l-10.25-.58c-3.29-.2-5.28-1.73-5.28-5.14s2-4.94,5.33-4.94Z"/><path class="cls-1" d="M321.63,129.16h2.5a1.41,1.41,0,0,1,1.07.54l6.31,6.76,3.14-3.38,2.17-2.34,1-1.07a1.4,1.4,0,0,1,1-.51h2.5a.91.91,0,0,1,.56.17.77.77,0,0,1,.29.34.53.53,0,0,1,0,.44.8.8,0,0,1-.24.46l-8.5,9.16v5.52a.93.93,0,0,1-.27.68.87.87,0,0,1-.68.27h-2.09a.91.91,0,0,1-.95-.95v-5.52l-4.24-4.58c-2.14-2.26-4.18-4.55-4.21-4.55a.84.84,0,0,1-.27-.49.53.53,0,0,1,0-.44A.87.87,0,0,1,321.63,129.16Z"/><path class="cls-1" d="M361.52,129a3.57,3.57,0,0,1,3.61,3.6v0c0,.07,0,.09-.1.09H349.5a1.74,1.74,0,0,0-1.22.32,1.31,1.31,0,0,0-.29,1,1.44,1.44,0,0,0,.32,1.07c.19.22.53.37,1.29.44l10.24.58c3.24.17,5.29,1.73,5.29,5.11s-1.95,5-5.33,5H347.65a3.67,3.67,0,0,1-3.65-3.55c0-.08,0-.1.09-.13H345l8.54,0c1.95,0,3.92,0,6.06,0,1,0,1.51-.25,1.51-1.32a1.64,1.64,0,0,0-.29-1.09,1.79,1.79,0,0,0-1.29-.42l-10.25-.58c-3.29-.2-5.28-1.73-5.28-5.14s2-4.94,5.33-4.94Z"/><path class="cls-1" d="M387,129.16a1,1,0,0,1,.7.27,1.15,1.15,0,0,1,.27.68v1.83a.91.91,0,0,1-1,.95h-7.6v12.36a.93.93,0,0,1-.27.68.87.87,0,0,1-.68.27h-2.09a.87.87,0,0,1-.68-.27.93.93,0,0,1-.27-.68V132.89h-7.62a1,1,0,0,1-.68-.25,1,1,0,0,1-.27-.7v-1.83a.91.91,0,0,1,.95-1Z"/><path class="cls-1" d="M389.91,129.48l.12-.1a1,1,0,0,1,.71-.22h17.52a.87.87,0,0,1,.44.1.8.8,0,0,1,.46.58c0,.17,0,.25,0,.27v1.83a1,1,0,0,1-.27.7,1,1,0,0,1-.68.25H390.61a.7.7,0,0,1-.56-.18c-.07,0,0,0-.12-.07a1,1,0,0,1-.27-.68v-1.63c0-.1,0-.2,0-.29A.89.89,0,0,1,389.91,129.48Zm-.25,7.47,0-.29a.89.89,0,0,1,.22-.54l.12-.09a1,1,0,0,1,.73-.2H408a.89.89,0,0,1,.9.68s0,.12,0,.27v1.8a.88.88,0,0,1-1,.95H390.61a.8.8,0,0,1-.58-.17s-.07,0-.1-.1a.8.8,0,0,1-.27-.51Zm0,6.72c0-.17,0-.27,0-.29a1,1,0,0,1,.19-.59.87.87,0,0,1,.71-.31h17.77a.87.87,0,0,1,.92.68s0,.12,0,.27v1.82a1,1,0,0,1-.24.68L409,146a.91.91,0,0,1-.63.19H390.61A1,1,0,0,1,390,146s-.07,0-.1-.1a1,1,0,0,1-.27-.65Z"/><path class="cls-1" d="M412.23,130.11a.91.91,0,0,1,.95-1h3.29a1,1,0,0,1,.51.15.88.88,0,0,1,.46.48l7.18,11.64,7.18-11.64a.88.88,0,0,1,.46-.48,1,1,0,0,1,.54-.15h3.26a.87.87,0,0,1,.68.27,1,1,0,0,1,.27.68v15.14a.93.93,0,0,1-.27.68.87.87,0,0,1-.68.27h-2.14a.87.87,0,0,1-.68-.27.93.93,0,0,1-.27-.68v-10l-6.35,10.32a1.17,1.17,0,0,1-1.05.63h-1.92a1.17,1.17,0,0,1-1-.63l-6.35-10.32v10a.93.93,0,0,1-.27.68.87.87,0,0,1-.68.27h-2.14a.91.91,0,0,1-.95-.95Z"/><rect class="cls-1" width="149" height="149" rx="28.7"/><path class="cls-2" d="M131.24,80.47a31.38,31.38,0,0,0-14.85-13.91L115,65.9a18.7,18.7,0,0,0,4.17-21.77,18,18,0,0,0-17.7-10.26c-10.28,1-15.81,7.18-17.4,17.29a17.74,17.74,0,0,0-9.66-2.75,18.09,18.09,0,0,0-9.63,2.73c-1.31-9.19-6.16-15.28-15.3-17-7.72-1.47-14.26,1.3-18.49,7.92-5.42,8.49-3.88,16.56,2.79,23.89L33,66.3C25,70.24,18.56,75.71,16.1,84.78V88.2c.07.09.17.17.19.26A13.61,13.61,0,0,0,30.66,99.89c4.13-.15,8.27,0,12.41,0h1.07a34.86,34.86,0,0,0,.62,4.45c1.76,6.41,6.7,10.15,13.51,10.19,10.78.06,21.55,0,32.33,0a13.51,13.51,0,0,0,13.89-13.86,5.24,5.24,0,0,1,.11-.8H106c4.63,0,9.26.09,13.89-.06A13.34,13.34,0,0,0,131.24,80.47ZM102.59,40.89A11.3,11.3,0,1,1,91.28,52.18,11.27,11.27,0,0,1,102.59,40.89ZM74.38,55.54A11.3,11.3,0,1,1,63.1,66.86,11.38,11.38,0,0,1,74.38,55.54ZM46.25,40.89A11.3,11.3,0,1,1,35,52.18,11.43,11.43,0,0,1,46.25,40.89ZM47.61,92a2.21,2.21,0,0,1-1.38.69q-8.13.07-16.27,0c-3.73,0-6.37-2.32-6.59-6a6.79,6.79,0,0,1,.88-3.65A25.57,25.57,0,0,1,50.58,71.06c1,.17,1.91.43,2.87.66,2.1.5,4,1.22,4.69,3.64A9.32,9.32,0,0,0,59.82,78c.63.84,1.37,1.6,2.17,2.52a28.76,28.76,0,0,0-8.82,5.49C51.21,87.92,49.49,90.05,47.61,92ZM91.1,107.32c-5.57.13-11.15,0-16.72,0v0c-5.39,0-10.78,0-16.16,0-3.74,0-6.25-2.18-6.74-5.75a5.82,5.82,0,0,1,1-4A25.55,25.55,0,0,1,69.86,85.71a25.82,25.82,0,0,1,26.58,12A6.27,6.27,0,0,1,91.1,107.32Zm28.11-14.6c-5.61.13-11.22,0-16.84,0a2.06,2.06,0,0,1-1.3-.86A33.38,33.38,0,0,0,89.29,81.72c-.77-.41-1.57-.75-2.53-1.21a19.9,19.9,0,0,0,4.87-7.07,1.58,1.58,0,0,1,.83-.68,25.71,25.71,0,0,1,32.13,10.33A6.3,6.3,0,0,1,119.21,92.72Z"/></g></g></svg>