<svg xmlns="http://www.w3.org/2000/svg" viewBox="0 0 631.45 149"><defs><style>.cls-1{fill:#039;}</style></defs><g id="Layer_2" data-name="Layer 2"><g id="Layer_1-2" data-name="Layer 1"><path class="cls-1" d="M283.07.22a23.43,23.43,0,0,1,23.69,23.69v.16c0,.48-.16.64-.64.64H204c-4.49,0-6.89,1-8,2.08s-1.92,2.88-1.92,6.57c0,3.36.64,5.6,2.08,7,1.28,1.44,3.52,2.4,8.49,2.88L272,47.12c21.29,1.13,34.74,11.37,34.74,33.63,0,23-12.8,32.66-35.06,32.66H191.81a24.18,24.18,0,0,1-24-23.38c0-.48.16-.8.65-.8h5.92c10.73,0,34.9-.16,56.19-.16,12.81,0,25.78,0,39.87-.16,6.88,0,9.93-1.6,9.93-8.64q0-5.05-1.92-7.21c-1.29-1.28-3.53-2.56-8.49-2.72l-67.4-3.84c-21.62-1.28-34.75-11.37-34.75-33.78,0-22.9,13.13-32.5,35.07-32.5Z"/><path class="cls-1" d="M326,7.42a5.77,5.77,0,0,1,1.76-4.48,6.22,6.22,0,0,1,4.49-1.76L363.44.7h71.08C455.82.7,467,10.94,467,32.24c0,7.52-1.92,14.72-7.52,19.69,8.16,5.12,11.05,14.25,11.05,23.85v5c0,21.93-12.65,33.46-34.59,33.46h-73.8l-29.94-1a7,7,0,0,1-4.49-1.76A6.22,6.22,0,0,1,326,107Zm27.38,73.33c0,7.2,2.72,9.28,9.77,9.28h71.56c7.05,0,9.93-1.76,9.93-9.28v-5c0-4.48-1-6.72-2.24-7.84-1.28-1.28-3.37-2.24-7.69-2.24H363.12c-7.21,0-9.77,2.88-9.77,10.08Zm4.32-41.95c.8.8,2.56,1.76,6.89,1.76H433.4c6.57,0,8.65-1.76,8.65-8.32,0-3.69-.64-5.45-1.76-6.57-.8-1.12-2.57-1.92-6.89-1.92H364.56c-6.89,0-8.49,1.92-8.49,8.49C356.07,35.92,356.55,37.68,357.67,38.8Z"/><path class="cls-1" d="M600.87.86c20.33,0,30.58,10.24,30.58,30.9v6.4a6.07,6.07,0,0,1-1.77,4.64,5.38,5.38,0,0,1-4.48,1.76H611.11a6.09,6.09,0,0,1-6.24-6.4v-5c0-4-.8-5.61-1.6-6.41-.64-.8-2.24-1.44-6.09-1.44H525.3c-4,0-6.09.8-7.21,1.92-1.12.8-1.76,2.88-1.76,5.93V81.55c0,3,.64,5.12,1.76,5.92,1.12,1.12,3.21,2.08,7.21,2.08h71.88c6.25,0,7.69-1.28,7.69-7.52V80.11a7.08,7.08,0,0,1,1.76-4.65,7.58,7.58,0,0,1,4.48-1.76H625.2c3.84,0,6.25,2.72,6.25,6.41v3.36c0,20-10.57,30.58-30.58,30.58H521.3c-20,0-31.54-10.25-31.54-30.9V31.76c0-20.66,10.88-30.9,31.54-30.9Z"/><path class="cls-1" d="M187.64,128.85a4.14,4.14,0,0,1,4.19,4.19v0c0,.08,0,.11-.12.11H173.66a2,2,0,0,0-1.42.37,1.51,1.51,0,0,0-.34,1.16,1.69,1.69,0,0,0,.37,1.24c.23.26.62.43,1.5.51l11.92.68c3.76.2,6.14,2,6.14,6s-2.27,5.77-6.2,5.77H171.51a4.28,4.28,0,0,1-4.25-4.13c0-.09,0-.14.11-.14h1c1.9,0,6.17,0,9.94,0,2.26,0,4.55,0,7,0,1.22,0,1.76-.28,1.76-1.53a1.93,1.93,0,0,0-.34-1.27,2,2,0,0,0-1.5-.48l-11.92-.68c-3.82-.23-6.14-2-6.14-6s2.32-5.75,6.2-5.75Z"/><path class="cls-1" d="M195.22,130.15a1,1,0,0,1,1.1-1.1h3.82a1.18,1.18,0,0,1,.59.17,1,1,0,0,1,.54.57l8.35,13.52L218,129.79a1,1,0,0,1,.54-.57,1.23,1.23,0,0,1,.62-.17h3.79a1,1,0,0,1,.79.31,1.1,1.1,0,0,1,.32.79v17.61a1.1,1.1,0,0,1-.32.79,1,1,0,0,1-.79.31h-2.49a1,1,0,0,1-.79-.31,1.08,1.08,0,0,1-.31-.79V136.12l-7.39,12a1.35,1.35,0,0,1-1.22.74h-2.23a1.34,1.34,0,0,1-1.19-.74l-7.39-12v11.64a1.08,1.08,0,0,1-.31.79,1,1,0,0,1-.79.31h-2.49a1,1,0,0,1-1.1-1.1Z"/><path class="cls-1" d="M226.2,147.25l11.34-17.46a1.77,1.77,0,0,1,.57-.57,1.08,1.08,0,0,1,.6-.17h2.71a1.34,1.34,0,0,1,1.19.76l11.32,17.46a1.44,1.44,0,0,1,.2.57,1,1,0,0,1-.45.88,2,2,0,0,1-.6.14h-2.91a1.17,1.17,0,0,1-.57-.14,1.63,1.63,0,0,1-.59-.62l-.6-.94-1-1.44-7.27-11.27c-.09-.08-.14-.08-.23,0l-4.53,7-2.71,4.28-1.56,2.38a1.77,1.77,0,0,1-.59.62,3.24,3.24,0,0,1-.6.14h-2.91a2,2,0,0,1-.6-.14,1,1,0,0,1-.45-.88A1.34,1.34,0,0,1,226.2,147.25Z"/><path class="cls-1" d="M265.5,129.05c3.54,0,5.46,1.92,5.46,5.46v3.94c0,3.67-1.75,5-5.29,5.34a.11.11,0,0,0-.08.2c1.18,1.13,3.87,3.68,4.86,4.67a.12.12,0,0,1-.08.2h-6.43c-.05,0-.08,0-.08,0-3.25-3.17-7.73-7.5-9.4-9.08a.12.12,0,0,1,.09-.2h10.24c1.14,0,1.45-.28,1.45-1.42v-3.34c0-.67-.14-1-.29-1.1s-.45-.31-1.16-.31H247.56c-.09,0-.11,0-.11-.11v-3.12a1,1,0,0,1,1.1-1.1Z"/><path class="cls-1" d="M296.37,129.05a1.23,1.23,0,0,1,.82.31,1.34,1.34,0,0,1,.31.79v2.13a1.06,1.06,0,0,1-1.13,1.1h-8.83v14.38a1.13,1.13,0,0,1-.31.79,1,1,0,0,1-.79.31H284a1,1,0,0,1-.79-.31,1.13,1.13,0,0,1-.31-.79V133.38H274a1.2,1.2,0,0,1-.79-.28,1.11,1.11,0,0,1-.31-.82v-2.13a1,1,0,0,1,1.1-1.1Z"/><path class="cls-1" d="M313.31,130.12a1,1,0,0,1,.31-.79,1.13,1.13,0,0,1,.8-.31l5.51-.08H332.5c3.76,0,5.74,1.81,5.74,5.57a4.47,4.47,0,0,1-1.33,3.48,4.69,4.69,0,0,1,2,4.22v.88c0,3.87-2.24,5.91-6.12,5.91h-13l-5.29-.17a1.23,1.23,0,0,1-.8-.31,1.11,1.11,0,0,1-.31-.79Zm4.84,13c0,1.27.48,1.64,1.73,1.64h12.65c1.24,0,1.75-.31,1.75-1.64v-.88a1.47,1.47,0,0,0-1.75-1.78H319.88c-1.28,0-1.73.5-1.73,1.78Zm.77-7.42a1.66,1.66,0,0,0,1.21.31H332.3c1.16,0,1.53-.31,1.53-1.47a1.53,1.53,0,0,0-.31-1.16c-.14-.2-.45-.34-1.22-.34H320.13c-1.21,0-1.5.34-1.5,1.5C318.63,135.16,318.72,135.47,318.92,135.67Z"/><path class="cls-1" d="M345.85,129.05a1,1,0,0,1,.79.31,1.08,1.08,0,0,1,.31.79v13c0,1.11.34,1.39,1.45,1.39h12.79c1.1,0,1.41-.28,1.41-1.39v-13a1.06,1.06,0,0,1,1.11-1.1h2.49a1.15,1.15,0,0,1,.82.31,1.18,1.18,0,0,1,.28.79V143.4c0,3.65-1.81,5.46-5.43,5.46H347.69c-3.65,0-5.43-1.93-5.43-5.46V130.15a1,1,0,0,1,1.1-1.1Z"/><path class="cls-1" d="M391.07,128.85a4.14,4.14,0,0,1,4.19,4.19v0c0,.08,0,.11-.12.11H377.09a2,2,0,0,0-1.42.37,1.55,1.55,0,0,0-.34,1.16,1.69,1.69,0,0,0,.37,1.24c.23.26.62.43,1.5.51l11.92.68c3.76.2,6.14,2,6.14,6s-2.27,5.77-6.2,5.77H374.94a4.28,4.28,0,0,1-4.25-4.13c0-.09,0-.12.12-.14h1c1.9,0,6.17,0,9.94,0,2.26,0,4.55,0,7,0,1.22,0,1.76-.28,1.76-1.53a1.93,1.93,0,0,0-.34-1.27,2,2,0,0,0-1.5-.48l-11.92-.68c-3.82-.23-6.14-2-6.14-6s2.32-5.75,6.2-5.75Z"/><path class="cls-1" d="M402.24,129.05a1,1,0,0,1,.79.31,1.08,1.08,0,0,1,.31.79v17.61a1.08,1.08,0,0,1-.31.79,1,1,0,0,1-.79.31h-2.49a1,1,0,0,1-1.1-1.1V130.15a1,1,0,0,1,1.1-1.1Z"/><path class="cls-1" d="M411,129.05a1.28,1.28,0,0,1,1,.45s0,0,.05,0L426.32,143V130.15a1,1,0,0,1,1.1-1.1h2.5a1.07,1.07,0,0,1,1.13,1.1v17.61a1,1,0,0,1-.31.79,1.1,1.1,0,0,1-.82.31h-3.09a1.43,1.43,0,0,1-1-.43l-.06-.05-14.34-13.44v12.82a1.1,1.1,0,0,1-.32.79,1,1,0,0,1-.79.31h-2.49a1,1,0,0,1-1.1-1.1V130.15a1,1,0,0,1,1.1-1.1Z"/><path class="cls-1" d="M434.72,129.42l.14-.12a1.11,1.11,0,0,1,.82-.25h20.38a1,1,0,0,1,.51.11.92.92,0,0,1,.53.68c0,.2.06.28.06.31v2.13a1.15,1.15,0,0,1-.31.82,1.21,1.21,0,0,1-.79.28H435.54a.84.84,0,0,1-.65-.2c-.08,0-.06-.06-.14-.08a1.09,1.09,0,0,1-.31-.8v-1.89c0-.12,0-.23,0-.34A1,1,0,0,1,434.72,129.42Zm-.28,8.69.05-.34a1,1,0,0,1,.26-.63l.14-.11a1.06,1.06,0,0,1,.85-.23H455.8a.86.86,0,0,1,.66.2.92.92,0,0,1,.39.6s0,.14,0,.31V140a1,1,0,0,1-1.1,1.1H435.54a1,1,0,0,1-.68-.19s-.08,0-.11-.12a.88.88,0,0,1-.31-.59Zm0,7.81c0-.2,0-.32,0-.34a1.15,1.15,0,0,1,.22-.68,1,1,0,0,1,.82-.37h20.66a1,1,0,0,1,1.08.79s0,.14,0,.31v2.13a1.19,1.19,0,0,1-.29.79l-.08.08a1.08,1.08,0,0,1-.74.23H435.54a1.16,1.16,0,0,1-.68-.2s-.08,0-.11-.11a1.11,1.11,0,0,1-.31-.77Z"/><path class="cls-1" d="M481,128.85a4.14,4.14,0,0,1,4.19,4.19v0c0,.08,0,.11-.11.11H467.06a2,2,0,0,0-1.41.37,1.51,1.51,0,0,0-.34,1.16,1.69,1.69,0,0,0,.36,1.24c.23.26.63.43,1.5.51l11.92.68c3.76.2,6.14,2,6.14,6s-2.26,5.77-6.2,5.77H464.91a4.28,4.28,0,0,1-4.25-4.13c0-.09,0-.12.12-.14h1.05c1.89,0,6.16,0,9.93,0,2.26,0,4.55,0,7.05,0,1.21,0,1.75-.28,1.75-1.53a1.88,1.88,0,0,0-.34-1.27,2,2,0,0,0-1.5-.48l-11.91-.68c-3.82-.23-6.15-2-6.15-6s2.33-5.75,6.2-5.75Z"/><path class="cls-1" d="M509,128.85a4.14,4.14,0,0,1,4.19,4.19v0c0,.08,0,.11-.11.11H495a2,2,0,0,0-1.41.37,1.51,1.51,0,0,0-.34,1.16,1.64,1.64,0,0,0,.37,1.24c.22.26.62.43,1.5.51l11.91.68c3.77.2,6.14,2,6.14,6s-2.26,5.77-6.19,5.77H492.86a4.27,4.27,0,0,1-4.24-4.13.12.12,0,0,1,.11-.14h1c1.9,0,6.17,0,9.93,0,2.27,0,4.56,0,7.05,0,1.22,0,1.75-.28,1.75-1.53a1.88,1.88,0,0,0-.34-1.27,2,2,0,0,0-1.5-.48l-11.91-.68c-3.82-.23-6.14-2-6.14-6s2.32-5.75,6.2-5.75Z"/><path class="cls-1" d="M550.05,129c3.59,0,5.4,1.81,5.4,5.47v1.13a1.07,1.07,0,0,1-.31.82,1,1,0,0,1-.79.31h-2.49a1.07,1.07,0,0,1-1.1-1.13v-.88c0-.71-.15-1-.29-1.13s-.39-.26-1.07-.26H536.69a1.78,1.78,0,0,0-1.27.34,1.32,1.32,0,0,0-.31,1.05v8.55a1.32,1.32,0,0,0,.31,1.05,1.76,1.76,0,0,0,1.27.36H549.4c1.1,0,1.36-.22,1.36-1.33V143a1.24,1.24,0,0,1,.31-.82,1.32,1.32,0,0,1,.79-.31h2.49a1.06,1.06,0,0,1,1.1,1.13v.6c0,3.53-1.86,5.4-5.4,5.4H536c-3.53,0-5.57-1.81-5.57-5.46v-9.08c0-3.66,1.92-5.47,5.57-5.47Z"/><path class="cls-1" d="M557.63,147.25,569,129.79a1.62,1.62,0,0,1,.56-.57,1.08,1.08,0,0,1,.6-.17h2.71a1.34,1.34,0,0,1,1.19.76l11.32,17.46a1.44,1.44,0,0,1,.2.57,1,1,0,0,1-.45.88,2,2,0,0,1-.6.14H581.6a1.17,1.17,0,0,1-.57-.14,1.63,1.63,0,0,1-.59-.62l-.6-.94-1-1.44-7.27-11.27c-.09-.08-.15-.08-.23,0l-4.53,7-2.72,4.28-1.55,2.38a1.72,1.72,0,0,1-.6.62,3,3,0,0,1-.59.14h-2.91a2,2,0,0,1-.6-.14,1,1,0,0,1-.45-.88A1.34,1.34,0,0,1,557.63,147.25Z"/><path class="cls-1" d="M596.93,129.05c3.54,0,5.46,1.92,5.46,5.46v3.94c0,3.67-1.75,5-5.29,5.34a.12.12,0,0,0-.09.2c1.19,1.13,3.88,3.68,4.87,4.67a.12.12,0,0,1-.08.2h-6.43s-.08,0-.08,0c-3.26-3.17-7.73-7.5-9.4-9.08a.11.11,0,0,1,.09-.2h10.24c1.13,0,1.45-.28,1.45-1.42v-3.34a1.5,1.5,0,0,0-.29-1.1c-.14-.2-.45-.31-1.16-.31H579c-.09,0-.11,0-.11-.11v-3.12a1,1,0,0,1,1.1-1.1Z"/><path class="cls-1" d="M605.78,130.15s0-.11.06-.31,0-.08,0-.11a.64.64,0,0,1,.17-.28l.22-.2a1,1,0,0,1,.63-.2h18.93c3.62,0,5.43,1.81,5.43,5.46v8.89c0,3.65-1.81,5.46-5.43,5.46H606.89a1.06,1.06,0,0,1-1.11-1.1v-3.12c0-.08,0-.11.12-.11h19.27c1.1,0,1.41-.28,1.41-1.39v-8.35a1.51,1.51,0,0,0-.28-1.1c-.14-.2-.45-.31-1.13-.31H605.9c-.09,0-.12,0-.12-.11Z"/><path class="cls-1" d="M120.3,0H28.7A28.7,28.7,0,0,0,0,28.7v91.6A28.7,28.7,0,0,0,28.7,149h91.6A28.7,28.7,0,0,0,149,120.3V28.7A28.7,28.7,0,0,0,120.3,0ZM77.83,100a3.36,3.36,0,0,1-5.19,1.3L32.43,69A3.37,3.37,0,0,0,27,71.63a39.27,39.27,0,0,0,2.83,15,3.33,3.33,0,0,1-1.27,4l-2.39,1.59a3.36,3.36,0,0,1-4.91-1.39,42.6,42.6,0,0,1-3.51-13.59c-.14-1.31-.34-2.61-.52-3.91a3.71,3.71,0,0,1,0-.47V69.73a3.87,3.87,0,0,1,0-.48A49.28,49.28,0,0,1,18.37,62c.88-2.83,1.92-5.61,3-8.5a3.35,3.35,0,0,1,5.24-1.43L67.58,84.94a3.36,3.36,0,0,0,5.41-2,49.65,49.65,0,0,0-6.25-34.73A3.36,3.36,0,0,1,68,43.58l2.31-1.33a3.36,3.36,0,0,1,4.47,1C85,58.45,86.27,80.43,77.83,100Zm13.38,15.67-2.27-1.75a3.38,3.38,0,0,1-.82-4.4,71.64,71.64,0,0,0,10.53-36.9,69.51,69.51,0,0,0-10-37A3.37,3.37,0,0,1,89.8,31l2.56-1.5a3.35,3.35,0,0,1,4.24.71c15.24,18,14.94,62.47-.6,84.76A3.36,3.36,0,0,1,91.21,115.66ZM116,130.19a3.35,3.35,0,0,1-4.92.93L109,129.53a3.35,3.35,0,0,1-.87-4.34c21.31-36.93,19-73,2.37-102.3a3.35,3.35,0,0,1,1.24-4.56L114,17a3.36,3.36,0,0,1,4.54,1.14C137.34,48.73,139.16,91.47,116,130.19Z"/></g></g></svg>