<svg xmlns="http://www.w3.org/2000/svg" viewBox="0 0 470.34 149.14"><defs><style>.cls-1{fill:#039;}.cls-2{fill:#fff;}</style></defs><g id="Layer_2" data-name="Layer 2"><g id="Layer_1-2" data-name="Layer 1"><path class="cls-1" d="M168.58,131.1a1.16,1.16,0,0,1,.55-.16h2.66a3.19,3.19,0,0,1,.54.13,2.17,2.17,0,0,1,.55.57L181,144.26,185.1,138c2.05-3.15,4.09-6.31,4.09-6.28.28-.42.54-.73,1.06-.73h2.66a1.12,1.12,0,0,1,.54.16.76.76,0,0,1,.31.33.78.78,0,0,1,.11.44,2.37,2.37,0,0,1-.18.55l-5.17,8-5.17,8a1.2,1.2,0,0,1-1.09.7h-2.48a1.23,1.23,0,0,1-1.06-.67l-10.37-16a1.32,1.32,0,0,1-.18-.55.87.87,0,0,1,.1-.44A.9.9,0,0,1,168.58,131.1Z"/><path class="cls-1" d="M199,130.94a1,1,0,0,1,.73.29,1,1,0,0,1,.28.72V148a1,1,0,0,1-.28.73.94.94,0,0,1-.73.28H196.7a1,1,0,0,1-1-1V132a1,1,0,0,1,1-1Z"/><path class="cls-1" d="M221.7,130.76a3.79,3.79,0,0,1,3.83,3.83v0c0,.08,0,.11-.11.11H208.93a1.84,1.84,0,0,0-1.29.33,1.41,1.41,0,0,0-.31,1.06,1.54,1.54,0,0,0,.33,1.14,2,2,0,0,0,1.37.47l10.89.62c3.43.18,5.61,1.83,5.61,5.43s-2.07,5.27-5.67,5.27H207a3.9,3.9,0,0,1-3.88-3.77c0-.08,0-.11.1-.13h1c1.73,0,5.63,0,9.07,0,2.07,0,4.16,0,6.44,0,1.11,0,1.6-.26,1.6-1.4a1.71,1.71,0,0,0-.31-1.16,1.86,1.86,0,0,0-1.37-.44l-10.88-.62c-3.49-.21-5.61-1.84-5.61-5.46s2.12-5.25,5.66-5.25Z"/><path class="cls-1" d="M231.93,130.94a1,1,0,0,1,.72.29,1,1,0,0,1,.28.72V148a1,1,0,0,1-.28.73.94.94,0,0,1-.72.28h-2.28a1,1,0,0,1-1-1V132a1,1,0,0,1,1-1Z"/><path class="cls-1" d="M256.15,130.94a1.11,1.11,0,0,1,.75.29,1.23,1.23,0,0,1,.29.72v1.94a1,1,0,0,1-1,1h-8.06V148a1,1,0,0,1-.29.73.92.92,0,0,1-.72.28h-2.22a.94.94,0,0,1-.73-.28,1,1,0,0,1-.28-.73V134.9h-8.09a1.08,1.08,0,0,1-.73-.26,1,1,0,0,1-.28-.75V132a1,1,0,0,1,1-1Z"/><path class="cls-1" d="M259,135.86c0-3.34,1.76-5,5.09-5h12.72c3.23,0,5.07,1.65,5.07,5v8.29c0,3.24-1.84,5-5.07,5H264.1c-3.23,0-5.09-1.65-5.09-5Zm4.29,8c0,.49.1.82.28.95a1.61,1.61,0,0,0,1.17.34h11.42a1.62,1.62,0,0,0,1.17-.31,1.43,1.43,0,0,0,.26-1v-7.81c0-1-.42-1.27-1.43-1.27H264.75a1.63,1.63,0,0,0-1.17.31,1.21,1.21,0,0,0-.28,1Z"/><path class="cls-1" d="M301.5,130.94c3.23,0,5,1.76,5,5v3.6c0,3.36-1.61,4.55-4.84,4.88a.1.1,0,0,0-.07.18c1.08,1,3.54,3.36,4.44,4.27a.11.11,0,0,1-.08.18h-5.86c-.06,0-.08,0-.08,0-3-2.89-7.06-6.85-8.58-8.29a.11.11,0,0,1,.07-.19h9.36c1,0,1.32-.25,1.32-1.29v-3.05c0-.62-.13-.88-.26-1s-.41-.28-1.06-.28H285.11c-.08,0-.11,0-.11-.1V132a1,1,0,0,1,1-1Z"/><path class="cls-1" d="M340.86,130.76a3.79,3.79,0,0,1,3.83,3.83v0c0,.08,0,.11-.1.11h-16.5a1.84,1.84,0,0,0-1.29.33,1.41,1.41,0,0,0-.31,1.06,1.5,1.5,0,0,0,.34,1.14c.2.23.56.39,1.37.47l10.88.62c3.44.18,5.61,1.83,5.61,5.43S342.62,149,339,149h-12.9a3.9,3.9,0,0,1-3.88-3.77.11.11,0,0,1,.1-.13h1c1.73,0,5.64,0,9.07,0,2.07,0,4.16,0,6.44,0,1.11,0,1.6-.26,1.6-1.4a1.71,1.71,0,0,0-.31-1.16,1.84,1.84,0,0,0-1.37-.44l-10.88-.62c-3.49-.21-5.61-1.84-5.61-5.46s2.12-5.25,5.66-5.25Z"/><path class="cls-1" d="M347.49,130.94h2.67a1.54,1.54,0,0,1,1.14.57L358,138.7l3.34-3.59,2.3-2.49,1-1.13a1.47,1.47,0,0,1,1.11-.55h2.66a1,1,0,0,1,.6.18,1,1,0,0,1,.31.37.58.58,0,0,1,0,.46.82.82,0,0,1-.26.49l-9,9.72V148a1,1,0,0,1-.28.73.94.94,0,0,1-.72.28h-2.23a1,1,0,0,1-1-1v-5.87l-4.5-4.86c-2.28-2.4-4.45-4.83-4.47-4.83a.86.86,0,0,1-.29-.52.58.58,0,0,1,0-.46A.92.92,0,0,1,347.49,130.94Z"/><path class="cls-1" d="M389.88,130.76a3.79,3.79,0,0,1,3.83,3.83v0c0,.08,0,.11-.11.11H377.11a1.9,1.9,0,0,0-1.3.33,1.42,1.42,0,0,0-.3,1.06,1.54,1.54,0,0,0,.33,1.14,2,2,0,0,0,1.37.47l10.89.62c3.43.18,5.61,1.83,5.61,5.43S391.64,149,388,149h-12.9a3.89,3.89,0,0,1-3.87-3.77c0-.08,0-.11.1-.13h.95c1.74,0,5.64,0,9.08,0,2.07,0,4.16,0,6.44,0,1.11,0,1.6-.26,1.6-1.4a1.71,1.71,0,0,0-.31-1.16,1.86,1.86,0,0,0-1.37-.44l-10.88-.62c-3.49-.21-5.61-1.84-5.61-5.46s2.12-5.25,5.66-5.25Z"/><path class="cls-1" d="M416.93,130.94a1.13,1.13,0,0,1,.75.29,1.23,1.23,0,0,1,.29.72v1.94a1,1,0,0,1-1,1h-8.06V148a1,1,0,0,1-.29.73.92.92,0,0,1-.72.28h-2.22a.94.94,0,0,1-.73-.28,1,1,0,0,1-.28-.73V134.9h-8.09a1.08,1.08,0,0,1-.73-.26,1,1,0,0,1-.28-.75V132a1,1,0,0,1,1-1Z"/><path class="cls-1" d="M420.05,131.28l.13-.1a1,1,0,0,1,.75-.24h18.61a.88.88,0,0,1,.47.11.86.86,0,0,1,.49.62,2.62,2.62,0,0,0,.05.28v1.94a1,1,0,0,1-.29.75,1.05,1.05,0,0,1-.72.26H420.8a.79.79,0,0,1-.6-.18c-.07,0-.05-.05-.13-.08a1,1,0,0,1-.28-.72v-1.73c0-.11,0-.21,0-.32A1,1,0,0,1,420.05,131.28Zm-.26,7.94,0-.31a.93.93,0,0,1,.23-.57l.13-.11a1,1,0,0,1,.78-.2h18.33a.77.77,0,0,1,.59.18.78.78,0,0,1,.36.54s0,.13,0,.29V141a.94.94,0,0,1-1,1H420.8a.86.86,0,0,1-.62-.18s-.08,0-.11-.11a.79.79,0,0,1-.28-.54Zm0,7.13a1,1,0,0,1,0-.31,1.05,1.05,0,0,1,.21-.62.94.94,0,0,1,.75-.33h18.87a.94.94,0,0,1,1,.72.8.8,0,0,1,0,.28V148a1.09,1.09,0,0,1-.26.73l-.07.07a1,1,0,0,1-.68.21H420.8a1,1,0,0,1-.62-.18s-.08,0-.11-.1a1,1,0,0,1-.28-.7Z"/><path class="cls-1" d="M443.77,132a1,1,0,0,1,1-1h3.49a1.12,1.12,0,0,1,.54.16.94.94,0,0,1,.49.52L456.93,144l7.62-12.35a.94.94,0,0,1,.49-.52,1.14,1.14,0,0,1,.57-.16h3.47a1,1,0,0,1,.72.29,1,1,0,0,1,.28.72V148a1,1,0,0,1-.28.73.94.94,0,0,1-.72.28H466.8a.92.92,0,0,1-.72-.28,1,1,0,0,1-.29-.73V137.41l-6.74,11a1.24,1.24,0,0,1-1.12.67h-2a1.2,1.2,0,0,1-1.08-.67l-6.75-11V148a1,1,0,0,1-.29.73.92.92,0,0,1-.72.28h-2.27a1,1,0,0,1-1-1Z"/><path class="cls-1" d="M170.6,2.25a6.51,6.51,0,0,1,3.28-.94H190a15,15,0,0,1,3.28.78,13.12,13.12,0,0,1,3.29,3.44l49.28,76.35,24.72-38.17c12.36-19.09,24.72-38.18,24.72-38,1.72-2.5,3.28-4.38,6.41-4.38h16.11a6.55,6.55,0,0,1,3.29.94,4.76,4.76,0,0,1,1.88,2,4.88,4.88,0,0,1,.62,2.66,11.79,11.79,0,0,1-1.09,3.29L291.22,58.41,259.93,106.6a7.27,7.27,0,0,1-6.57,4.22h-15c-3,0-4.69-1.56-6.42-4.07L169.19,10.23a8.21,8.21,0,0,1-1.09-3.29,4.79,4.79,0,0,1,.62-2.66A4.76,4.76,0,0,1,170.6,2.25Z"/><path class="cls-1" d="M447.19.22a22.9,22.9,0,0,1,23.15,23.15v.16c0,.47-.15.62-.62.62H369.9c-4.38,0-6.72.94-7.82,2s-1.87,2.81-1.87,6.41c0,3.28.62,5.47,2,6.88,1.25,1.41,3.44,2.35,8.29,2.82l65.86,3.75c20.81,1.1,33.95,11.11,33.95,32.86,0,22.52-12.51,31.91-34.26,31.91H358A23.61,23.61,0,0,1,334.55,88c0-.47.15-.63.62-.78H341c10.48,0,34.11-.16,54.91-.16,12.52,0,25.19,0,39-.15,6.73,0,9.7-1.57,9.7-8.45,0-3.29-.63-5.63-1.88-7-1.25-1.25-3.44-2.51-8.29-2.66L368.5,65c-21.12-1.25-33.95-11.1-33.95-33C334.55,9.6,347.38.22,368.81.22Z"/><rect class="cls-1" width="149" height="149" rx="28.7"/><path class="cls-2" d="M120.23,61c-2.31-1.44-4.73-2.71-7.14-4.08A19.13,19.13,0,0,0,119.27,43a18.63,18.63,0,0,0-6-14.3,19.34,19.34,0,0,0-25.81-1.13,18.65,18.65,0,0,0-6.81,11.3c-1.32,7.06.79,13.11,5.75,18.07l-8.14,4.43a19.55,19.55,0,0,0-29-8.64A18.84,18.84,0,0,0,41,65.77c-1,6.78,1.11,12.53,6,17.4l-1,.43A37.18,37.18,0,0,0,28.77,97.79a32.13,32.13,0,0,0-4.33,9.74,5.71,5.71,0,0,0-.17,1.43v1.29a5.27,5.27,0,0,0,.15,1.31,12.48,12.48,0,0,0,2.08,4.77,11.3,11.3,0,0,0,6,4.22h0a6.74,6.74,0,0,0,1.84.3h36c2-1.19,2.76-2.6,2.43-4.32a3.9,3.9,0,0,0-4.19-3.14H36.28c-3.4,0-5.1-2.47-3.94-5.67A28.27,28.27,0,0,1,44.43,92.93a29.27,29.27,0,0,1,20.72-4A29.84,29.84,0,0,1,76.62,93.6a3.8,3.8,0,1,0,4.15-6.37c-1.37-.92-2.82-1.74-4.27-2.54-1-.53-2-1-3.07-1.45a1.94,1.94,0,0,1,.2-.29,19.35,19.35,0,0,0,6-12,1.52,1.52,0,0,1,.47-.89c8.43-7.53,18.08-9.56,28.86-6.29a30.51,30.51,0,0,1,7.4,3.7,3.68,3.68,0,0,0,4.45-.27A3.77,3.77,0,0,0,120.23,61Zm-60,19.69A11.85,11.85,0,1,1,72.06,68.8,11.92,11.92,0,0,1,60.24,80.68Zm41.87-26.4A11.85,11.85,0,1,1,111.42,45,11.88,11.88,0,0,1,102.11,54.28Z"/><path class="cls-2" d="M119.78,106.37a5.88,5.88,0,0,1-2,.32c-3.28,0-6.56,0-10,0v1c0,2.87-.06,5.74,0,8.6a4.38,4.38,0,0,1-2.5,4.52h-2.68a4.4,4.4,0,0,1-2.51-4.52c.09-2.87,0-5.74,0-8.6v-1H97.72c-2.61,0-5.23,0-7.84,0a3.83,3.83,0,1,1,0-7.64c3.37,0,6.75,0,10.28,0V98c0-3.19,0-6.37,0-9.56a3.79,3.79,0,0,1,3.15-3.69A3.75,3.75,0,0,1,107.46,87a5.56,5.56,0,0,1,.35,1.95c0,3.31,0,6.62,0,10.09h1c3.19,0,6.38,0,9.56,0a3.79,3.79,0,0,1,1.37,7.3Z"/></g></g></svg>